# xmcd CD database file
#
# Track frame offsets:
#	150
#	20378
#	40663
#	58558
#	78218
#	94201
#	115666
#	131551
#
# Disc length: 2047 seconds
#
# Revision: 0
# Processed by: cddbd v1.5.2PL0 Copyright (c) Steve Scherf et al.
# Submitted via: CDex 1.51
#
DISCID=5807fd08
DTITLE=Paul Bley - Paul Bley with Gary Peacock
DYEAR=1963
DGENRE=Jazz
TTITLE0=Blues
TTITLE1=Getting Started
TTITLE2=When Will The Blues Leave
TTITLE3=Long Ago And Far Away
TTITLE4=Moor
TTITLE5=Gary
TTITLE6=Big Foot
TTITLE7=Albert's Love Theme
EXTD=YEAR: 1963
EXTT0=
EXTT1=
EXTT2=
EXTT3=
EXTT4=
EXTT5=
EXTT6=
EXTT7=
PLAYORDER=
